<svg width="114" height="42" viewBox="0 0 114 42" fill="none" xmlns="http://www.w3.org/2000/svg">
<path opacity="0.5" d="M40.0652 2.25671L30.2601 36.9917C30.2102 37.1494 30.0108 37.1967 29.8945 37.0863L23.3301 30.8583L28.2492 13.4514C28.2991 13.2937 28.1495 13.1518 27.9833 13.1991L9.63617 17.8662L3.10498 11.6697C2.98865 11.5593 3.03851 11.3701 3.20469 11.3228L39.7993 2.00444C39.9655 1.97291 40.115 2.11481 40.0652 2.25671Z" fill="#00B37E"/>
<path opacity="0.5" d="M23.3297 30.858L20.8037 39.8452C20.7538 40.0029 20.5544 40.0502 20.4381 39.9398L0.0634003 20.6251C-0.0529313 20.5147 -0.00307518 20.3255 0.163113 20.2782L9.63583 17.8658L23.3297 30.858Z" fill="#00B37E"/>
<path d="M28.2484 13.4511L23.3292 30.858L9.63533 17.8659L27.9825 13.1988C28.1487 13.1515 28.2982 13.2934 28.2484 13.4511Z" fill="#00B37E"/>
<path d="M59.4013 11.3104H62.5745L67.2468 24.6653L71.9192 11.3104H75.0923L68.5211 29.5H65.9726L59.4013 11.3104ZM57.6898 11.3104H60.8505L61.4252 24.328V29.5H57.6898V11.3104ZM73.6432 11.3104H76.8163V29.5H73.0685V24.328L73.6432 11.3104ZM86.0985 29.7499C85.0491 29.7499 84.108 29.5833 83.2751 29.2501C82.4423 28.9087 81.7344 28.4381 81.1514 27.8385C80.5767 27.2388 80.1353 26.5434 79.8271 25.7521C79.519 24.9526 79.3649 24.1031 79.3649 23.2036V22.7039C79.3649 21.6795 79.5106 20.7425 79.8021 19.893C80.0936 19.0435 80.5101 18.3064 81.0514 17.6818C81.6011 17.0571 82.2674 16.5782 83.0503 16.2451C83.8332 15.9036 84.716 15.7329 85.6988 15.7329C86.6565 15.7329 87.5061 15.8911 88.2473 16.2076C88.9885 16.5241 89.609 16.9739 90.1087 17.5569C90.6168 18.1398 90.9999 18.8394 91.2581 19.6556C91.5163 20.4635 91.6453 21.363 91.6453 22.3541V23.8532H80.9015V21.4546H88.1099V21.1798C88.1099 20.6801 88.0183 20.2345 87.835 19.843C87.6601 19.4433 87.3936 19.1268 87.0355 18.8936C86.6774 18.6604 86.2193 18.5438 85.6613 18.5438C85.1865 18.5438 84.7784 18.6479 84.437 18.8561C84.0955 19.0643 83.8165 19.3558 83.6 19.7306C83.3917 20.1054 83.2335 20.5468 83.1252 21.0548C83.0253 21.5546 82.9753 22.1042 82.9753 22.7039V23.2036C82.9753 23.745 83.0503 24.2447 83.2002 24.7028C83.3584 25.1608 83.5791 25.5564 83.8623 25.8896C84.1538 26.2227 84.5036 26.4809 84.9117 26.6641C85.3281 26.8474 85.7987 26.939 86.3234 26.939C86.973 26.939 87.5768 26.814 88.1349 26.5642C88.7012 26.306 89.1884 25.9187 89.5965 25.4024L91.3455 27.3013C91.0623 27.7094 90.6751 28.1008 90.1837 28.4756C89.7006 28.8504 89.1176 29.1585 88.4347 29.4001C87.7517 29.6333 86.973 29.7499 86.0985 29.7499ZM99.2785 26.939C99.7199 26.939 100.111 26.8557 100.453 26.6891C100.794 26.5142 101.061 26.2727 101.252 25.9645C101.452 25.648 101.556 25.2774 101.565 24.8527H104.95C104.942 25.8021 104.688 26.6475 104.188 27.3887C103.688 28.1216 103.018 28.7005 102.177 29.1252C101.336 29.5416 100.394 29.7499 99.3534 29.7499C98.304 29.7499 97.3879 29.575 96.605 29.2252C95.8304 28.8754 95.185 28.3923 94.6686 27.776C94.1522 27.1513 93.765 26.4268 93.5068 25.6022C93.2486 24.7694 93.1195 23.8782 93.1195 22.9288V22.5665C93.1195 21.6087 93.2486 20.7175 93.5068 19.893C93.765 19.0602 94.1522 18.3356 94.6686 17.7193C95.185 17.0946 95.8304 16.6074 96.605 16.2576C97.3796 15.9078 98.2874 15.7329 99.3284 15.7329C100.436 15.7329 101.406 15.9453 102.239 16.37C103.08 16.7948 103.738 17.4028 104.213 18.194C104.696 18.9769 104.942 19.9055 104.95 20.9799H101.565C101.556 20.5301 101.461 20.122 101.277 19.7556C101.102 19.3891 100.844 19.0976 100.503 18.8811C100.17 18.6562 99.7574 18.5438 99.266 18.5438C98.7413 18.5438 98.3124 18.6562 97.9792 18.8811C97.6461 19.0976 97.3879 19.3975 97.2047 19.7806C97.0214 20.1554 96.8923 20.5843 96.8174 21.0673C96.7507 21.5421 96.7174 22.0418 96.7174 22.5665V22.9288C96.7174 23.4535 96.7507 23.9573 96.8174 24.4404C96.884 24.9235 97.0089 25.3524 97.1922 25.7272C97.3837 26.1019 97.6461 26.3976 97.9792 26.6142C98.3124 26.8307 98.7454 26.939 99.2785 26.939ZM110.834 15.9828V29.5H107.224V15.9828H110.834ZM106.999 12.4598C106.999 11.9351 107.182 11.502 107.549 11.1605C107.915 10.819 108.407 10.6483 109.023 10.6483C109.631 10.6483 110.118 10.819 110.485 11.1605C110.859 11.502 111.047 11.9351 111.047 12.4598C111.047 12.9845 110.859 13.4176 110.485 13.759C110.118 14.1005 109.631 14.2712 109.023 14.2712C108.407 14.2712 107.915 14.1005 107.549 13.759C107.182 13.4176 106.999 12.9845 106.999 12.4598Z" fill="#E1E1E6"/>
</svg>
